<svg enable-background="new 0 0 128 128" viewBox="0 0 128 128" xmlns="http://www.w3.org/2000/svg" xmlns:xlink="http://www.w3.org/1999/xlink"><linearGradient id="a"><stop offset=".0832"/><stop offset="1" stop-opacity="0"/></linearGradient><linearGradient id="b" gradientUnits="userSpaceOnUse" x1="41.4412" x2="39.0662" xlink:href="#a" y1="113.5068" y2="116.6735"/><linearGradient id="c" gradientUnits="userSpaceOnUse" x1="41.4412" x2="39.0662" xlink:href="#a" y1="83.4652" y2="86.6318"/><linearGradient id="d" gradientUnits="userSpaceOnUse" x1="41.4412" x2="39.0662" xlink:href="#a" y1="53.4235" y2="56.5902"/><linearGradient id="e" gradientUnits="userSpaceOnUse" x1="41.4412" x2="39.0662" xlink:href="#a" y1="23.3818" y2="26.5485"/><linearGradient id="f"><stop offset="0" stop-color="#a1714e"/><stop offset="1" stop-color="#805944"/></linearGradient><linearGradient id="g" gradientTransform="matrix(-1 0 0 1 133.1996 0)" gradientUnits="userSpaceOnUse" x1="38.0402" x2="47.8712" xlink:href="#f" y1="64.0005" y2="64.0005"/><linearGradient id="h" gradientTransform="matrix(-1 0 0 1 144.3007 0)" gradientUnits="userSpaceOnUse" x1="57.739" x2="55.364" xlink:href="#a" y1="113.5068" y2="116.6735"/><linearGradient id="i" gradientTransform="matrix(-1 0 0 1 144.3007 0)" gradientUnits="userSpaceOnUse" x1="57.739" x2="55.364" xlink:href="#a" y1="83.4652" y2="86.6318"/><linearGradient id="j" gradientTransform="matrix(-1 0 0 1 144.3007 0)" gradientUnits="userSpaceOnUse" x1="57.739" x2="55.364" xlink:href="#a" y1="53.4235" y2="56.5902"/><linearGradient id="k" gradientTransform="matrix(-1 0 0 1 144.3007 0)" gradientUnits="userSpaceOnUse" x1="57.739" x2="55.364" xlink:href="#a" y1="23.3818" y2="26.5485"/><linearGradient id="l"><stop offset="0" stop-color="#936747"/><stop offset=".7089" stop-color="#d19966"/></linearGradient><linearGradient id="m" gradientUnits="userSpaceOnUse" x1="63.8758" x2="63.8758" xlink:href="#l" y1="13.4216" y2="22.3768"/><linearGradient id="n"><stop offset=".2113" stop-color="#ffca7d"/><stop offset=".3603" stop-color="#f1bb76"/><stop offset=".6689" stop-color="#daa26a"/><stop offset=".8558" stop-color="#d19966"/></linearGradient><linearGradient id="o" gradientUnits="userSpaceOnUse" x1="63.8854" x2="63.8854" xlink:href="#n" y1="22.4016" y2="24.0266"/><linearGradient id="p" gradientUnits="userSpaceOnUse" x1="63.8758" x2="63.8758" xlink:href="#l" y1="103.3598" y2="112.315"/><linearGradient id="q" gradientUnits="userSpaceOnUse" x1="63.8854" x2="63.8854" xlink:href="#n" y1="112.3398" y2="113.9649"/><linearGradient id="r" gradientUnits="userSpaceOnUse" x1="63.8758" x2="63.8758" xlink:href="#l" y1="73.3804" y2="82.3356"/><linearGradient id="s" gradientUnits="userSpaceOnUse" x1="63.8854" x2="63.8854" xlink:href="#n" y1="82.3604" y2="83.9855"/><linearGradient id="t" gradientUnits="userSpaceOnUse" x1="63.8758" x2="63.8758" xlink:href="#l" y1="43.401" y2="52.3562"/><linearGradient id="u" gradientUnits="userSpaceOnUse" x1="63.8854" x2="63.8854" xlink:href="#n" y1="52.381" y2="54.006"/><linearGradient id="v" gradientTransform="matrix(-1 0 0 1 70 0)" gradientUnits="userSpaceOnUse" x1="32.7931" x2="42.7604" xlink:href="#f" y1="64.0005" y2="64.0005"/><path d="m35.54 113.91 7.22 5.45v-6l-6.59-.43z" fill="url(#b)" opacity=".6"/><path d="m35.54 83.87 7.22 5.45v-6l-6.59-.44z" fill="url(#c)" opacity=".6"/><path d="m35.54 53.83 7.22 5.45v-6l-6.59-.44z" fill="url(#d)" opacity=".6"/><path d="m35.54 23.79 7.22 5.45v-6l-6.59-.44z" fill="url(#e)" opacity=".6"/><path d="m85.24 124.01h9.97v-120.02h-9.97z" fill="url(#g)"/><path d="m37.46 60.69h120v6.61h-120z" fill="#d19966" transform="matrix(0 1 -1 0 161.4456 -33.4688)"/><path d="m92.46 113.91-7.22 5.45v-6l6.6-.43z" fill="url(#h)" opacity=".6"/><path d="m92.46 83.87-7.22 5.45v-6l6.6-.44z" fill="url(#i)" opacity=".6"/><path d="m92.46 53.83-7.22 5.45v-6l6.6-.44z" fill="url(#j)" opacity=".6"/><path d="m92.46 23.79-7.22 5.45v-6l6.6-.44z" fill="url(#k)" opacity=".6"/><path d="m92.63 19.25-57.51.21.62-1.54 4.99-3.67c.21-.16.47-.25.73-.25l43.39.38c.28 0 .56.1.78.28l6.52 3.3z" fill="url(#m)"/><path d="m91.61 24.03h-55.44c-.58 0-1.04-.47-1.04-1.04v-4.13c0-.58.47-1.04 1.04-1.04h55.44c.58 0 1.04.47 1.04 1.04v4.13c0 .58-.47 1.04-1.04 1.04z" fill="url(#o)"/><path d="m92.63 109.18-57.51.21.62-1.54 4.99-3.67c.22-.16.47-.24.73-.24l43.39.38c.28 0 .56.1.78.28l6.52 3.3z" fill="url(#p)"/><path d="m91.61 113.97h-55.44c-.58 0-1.04-.47-1.04-1.04v-4.13c0-.58.47-1.04 1.04-1.04h55.44c.58 0 1.04.47 1.04 1.04v4.13c0 .58-.47 1.04-1.04 1.04z" fill="url(#q)"/><path d="m92.63 79.21-57.51.21.62-1.54 4.99-3.67c.22-.16.47-.24.73-.24l43.39.38c.28 0 .56.1.78.28l6.52 3.3z" fill="url(#r)"/><path d="m91.61 83.99h-55.44c-.58 0-1.04-.47-1.04-1.04v-4.13c0-.58.47-1.04 1.04-1.04h55.44c.58 0 1.04.47 1.04 1.04v4.13c0 .58-.47 1.04-1.04 1.04z" fill="url(#s)"/><path d="m92.63 49.23-57.51.21.62-1.54 4.99-3.67c.22-.16.47-.24.73-.24l43.39.38c.28 0 .56.1.78.28l6.52 3.3z" fill="url(#t)"/><path d="m91.61 54.01h-55.44c-.58 0-1.04-.47-1.04-1.04v-4.13c0-.58.47-1.04 1.04-1.04h55.44c.58 0 1.04.47 1.04 1.04v4.13c0 .58-.47 1.04-1.04 1.04z" fill="url(#u)"/><path d="m27.24 124.01h9.97v-120.02h-9.97z" fill="url(#v)"/><path d="m-20.54 60.69h120v6.61h-120z" fill="#d19966" transform="matrix(0 1 -1 0 103.4456 24.5312)"/></svg>